<svg version="1.1" xmlns="http://www.w3.org/2000/svg" xmlns:xlink="http://www.w3.org/1999/xlink" width="1000" height="550" style="width: 1000px; height: 550px;"><defs><clipPath id="TkZAgKTilODh"><path fill="none" stroke="none" d=" M 72 37 L 970 37 L 970 516 L 72 516 L 72 37 Z"/></clipPath><clipPath id="aPTLicIrVVsI"><path fill="none" stroke="none" d=" M 72 37 L 970 37 L 970 516 L 72 516 L 72 37 Z"/></clipPath><clipPath id="lBTgnHbtOdMe"><path fill="none" stroke="none" d=" M 72 37 L 970 37 L 970 516 L 72 516 L 72 37 Z"/></clipPath><clipPath id="pWWVPcsdvpGt"><path fill="none" stroke="none" d=" M 72 37 L 970 37 L 970 516 L 72 516 L 72 37 Z"/></clipPath><clipPath id="WlxfeSTtKsTW"><path fill="none" stroke="none" d=" M 72 37 L 970 37 L 970 516 L 72 516 L 72 37 Z"/></clipPath></defs><g><g transform="scale(1,1) translate(0.5,0.5)"><rect fill="#FFFFFF" stroke="none" x="0" y="0" width="1000" height="550"/><rect fill="#ffffff" stroke="none" x="0" y="0" width="1000" height="550"/><rect fill="#FFFFFF" stroke="none" x="72" y="37" width="898" height="479"/><rect fill="#ffffff" stroke="none" x="72" y="37" width="898" height="479"/><g><rect fill="none" stroke="#e5e5e5" x="72" y="37" width="898" height="479" stroke-linejoin="bevel" stroke-miterlimit="10"/></g><g clip-path="url(#TkZAgKTilODh)"><g><g><path fill="none" stroke="#e5e5e5" paint-order="fill stroke markers" d=" M 162 516 L 162 37" stroke-linejoin="bevel" stroke-miterlimit="10"/><path fill="none" stroke="#e5e5e5" paint-order="fill stroke markers" d=" M 341 516 L 341 37" stroke-linejoin="bevel" stroke-miterlimit="10"/><path fill="none" stroke="#e5e5e5" paint-order="fill stroke markers" d=" M 521 516 L 521 37" stroke-linejoin="bevel" stroke-miterlimit="10"/><path fill="none" stroke="#e5e5e5" paint-order="fill stroke markers" d=" M 701 516 L 701 37" stroke-linejoin="bevel" stroke-miterlimit="10"/><path fill="none" stroke="#e5e5e5" paint-order="fill stroke markers" d=" M 880 516 L 880 37" stroke-linejoin="bevel" stroke-miterlimit="10"/></g></g></g><g clip-path="url(#aPTLicIrVVsI)"><g><g><path fill="none" stroke="#e5e5e5" paint-order="fill stroke markers" d=" M 72 440 L 970 440" stroke-linejoin="bevel" stroke-miterlimit="10"/><path fill="none" stroke="#e5e5e5" paint-order="fill stroke markers" d=" M 72 303 L 970 303" stroke-linejoin="bevel" stroke-miterlimit="10"/><path fill="none" stroke="#e5e5e5" paint-order="fill stroke markers" d=" M 72 166 L 970 166" stroke-linejoin="bevel" stroke-miterlimit="10"/></g></g></g><g clip-path="url(#lBTgnHbtOdMe)"><g><g><path fill="none" stroke="none"/><path fill="MidnightBlue" stroke="MidnightBlue" paint-order="fill stroke markers" d=" M 179.3 58.77272727272725 A 17.5 17.5 0 1 1 179.29999125000074 58.75522727564391" stroke-linejoin="bevel" stroke-miterlimit="10"/><path fill="DodgerBlue" stroke="DodgerBlue" paint-order="fill stroke markers" d=" M 358.9 124.79475993790061 A 17.5 17.5 0 1 1 358.8999912500007 124.77725994081726" stroke-linejoin="bevel" stroke-miterlimit="10"/><path fill="CornflowerBlue" stroke="CornflowerBlue" paint-order="fill stroke markers" d=" M 538.5 316.00071322590065 A 17.5 17.5 0 1 1 538.4999912500007 315.9832132288173" stroke-linejoin="bevel" stroke-miterlimit="10"/><path fill="DeepSkyBlue" stroke="DeepSkyBlue" paint-order="fill stroke markers" d=" M 718.1 325.35795060695807 A 17.5 17.5 0 1 1 718.0999912500007 325.3404506098747" stroke-linejoin="bevel" stroke-miterlimit="10"/><path fill="grey" stroke="grey" paint-order="fill stroke markers" d=" M 897.6999999999999 494.2272727272727 A 17.5 17.5 0 1 1 897.6999912500006 494.20977273018934" stroke-linejoin="bevel" stroke-miterlimit="10"/></g></g></g><g clip-path="url(#pWWVPcsdvpGt)"><g><g/><g><path fill="#ffffff" stroke="#e5e5e5" paint-order="fill stroke markers" d=" M 556.34375 47 L 960 47 L 960 179 L 556.34375 179 L 556.34375 47 Z" fill-opacity="0.95" stroke-linejoin="bevel" stroke-miterlimit="10" stroke-opacity="0.5"/><text fill="#444444" stroke="none" font-family="helvetica" font-size="10pt" font-style="normal" font-weight="normal" text-decoration="normal" x="591.34375" y="67" text-anchor="start" dominant-baseline="central">Directorate for Mathematical &amp; Physical Sciences</text><path fill="MidnightBlue" stroke="MidnightBlue" paint-order="fill stroke markers" d=" M 580.34375 67 A 4 4 0 1 1 580.3437480000001 66.99600000066667" stroke-linejoin="bevel" stroke-miterlimit="10"/><text fill="#444444" stroke="none" font-family="helvetica" font-size="10pt" font-style="normal" font-weight="normal" text-decoration="normal" x="591.34375" y="90" text-anchor="start" dominant-baseline="central">Directorate for Engineering</text><path fill="DodgerBlue" stroke="DodgerBlue" paint-order="fill stroke markers" d=" M 580.34375 90 A 4 4 0 1 1 580.3437480000001 89.99600000066667" stroke-linejoin="bevel" stroke-miterlimit="10"/><text fill="#444444" stroke="none" font-family="helvetica" font-size="10pt" font-style="normal" font-weight="normal" text-decoration="normal" x="591.34375" y="113" text-anchor="start" dominant-baseline="central">Directorate for Computer &amp; Information Science &amp; Engineering</text><path fill="CornflowerBlue" stroke="CornflowerBlue" paint-order="fill stroke markers" d=" M 580.34375 113 A 4 4 0 1 1 580.3437480000001 112.99600000066667" stroke-linejoin="bevel" stroke-miterlimit="10"/><text fill="#444444" stroke="none" font-family="helvetica" font-size="10pt" font-style="normal" font-weight="normal" text-decoration="normal" x="591.34375" y="136" text-anchor="start" dominant-baseline="central">Directorate for Geosciencess</text><path fill="DeepSkyBlue" stroke="DeepSkyBlue" paint-order="fill stroke markers" d=" M 580.34375 136 A 4 4 0 1 1 580.3437480000001 135.99600000066667" stroke-linejoin="bevel" stroke-miterlimit="10"/><text fill="#444444" stroke="none" font-family="helvetica" font-size="10pt" font-style="normal" font-weight="normal" text-decoration="normal" x="591.34375" y="159" text-anchor="start" dominant-baseline="central">Directorate For Biological Sciences</text><path fill="grey" stroke="grey" paint-order="fill stroke markers" d=" M 580.34375 159 A 4 4 0 1 1 580.3437480000001 158.99600000066667" stroke-linejoin="bevel" stroke-miterlimit="10"/></g></g></g><g><g fill="MidnightBlue"><path fill="" stroke="none" d=""/><g transform="translate(72,32)"><path fill="none" stroke="none"/><text fill="" stroke="none" font-family="helvetica" font-size="15pt" font-style="normal" font-weight="bold" text-decoration="normal" x="0" y="0" text-anchor="start" dominant-baseline="text-after-edge">Directorate for For Mathematical &amp; Physical Scien has funded the largest number of projects</text></g></g></g><g/><g><g fill="#444444"><path fill="" stroke="black" paint-order="fill stroke markers" d=" M 72 516 L 970 516" stroke-linejoin="bevel" stroke-miterlimit="10"/><g transform="translate(162,527) rotate(0,0,0)"><text fill="" stroke="none" font-family="helvetica" font-size="0pt" font-style="normal" font-weight="normal" text-decoration="normal" x="0" y="0" text-anchor="middle" dominant-baseline="hanging">Directorate for Mathematical &amp; Physical Sciences</text><g transform="rotate(0,0,0) translate(-162,-527) translate(341,527) rotate(0,0,0)"><text fill="" stroke="none" font-family="helvetica" font-size="0pt" font-style="normal" font-weight="normal" text-decoration="normal" x="0" y="0" text-anchor="middle" dominant-baseline="hanging">Directorate for Engineering</text><g transform="rotate(0,0,0) translate(-341,-527) translate(521,527) rotate(0,0,0)"><text fill="" stroke="none" font-family="helvetica" font-size="0pt" font-style="normal" font-weight="normal" text-decoration="normal" x="0" y="0" text-anchor="middle" dominant-baseline="hanging">Directorate for Computer &amp; Information Science &amp; Engineering</text><g transform="rotate(0,0,0) translate(-521,-527) translate(701,527) rotate(0,0,0)"><text fill="" stroke="none" font-family="helvetica" font-size="0pt" font-style="normal" font-weight="normal" text-decoration="normal" x="0" y="0" text-anchor="middle" dominant-baseline="hanging">Directorate for Geosciencess</text><g transform="rotate(0,0,0) translate(-701,-527) translate(880,527) rotate(0,0,0)"><text fill="" stroke="none" font-family="helvetica" font-size="0pt" font-style="normal" font-weight="normal" text-decoration="normal" x="0" y="0" text-anchor="middle" dominant-baseline="hanging">Directorate For Biological Sciences</text><g transform="rotate(0,0,0) translate(-880,-527) translate(521,527) rotate(0,0,0)"><text fill="" stroke="none" font-family="helvetica" font-size="14pt" font-style="italic" font-weight="normal" text-decoration="normal" x="0" y="0" text-anchor="middle" dominant-baseline="hanging">Directorate</text><g transform="rotate(0,0,0) translate(-521,-527)"/></g></g></g></g></g></g></g></g><g><g fill="#444444"><path fill="none" stroke="black" paint-order="fill stroke markers" d=" M 72 516 L 72 37" stroke-linejoin="bevel" stroke-miterlimit="10"/><path fill="none" stroke="black" paint-order="fill stroke markers" d=" M 66 440 L 74 440" stroke-linejoin="bevel" stroke-miterlimit="10"/><path fill="none" stroke="black" paint-order="fill stroke markers" d=" M 66 303 L 74 303" stroke-linejoin="bevel" stroke-miterlimit="10"/><path fill="none" stroke="black" paint-order="fill stroke markers" d=" M 66 166 L 74 166" stroke-linejoin="bevel" stroke-miterlimit="10"/><path fill="none" stroke="black" paint-order="fill stroke markers" d=" M 68 468 L 72 468" stroke-linejoin="bevel" stroke-miterlimit="10"/><path fill="none" stroke="black" paint-order="fill stroke markers" d=" M 68 495 L 72 495" stroke-linejoin="bevel" stroke-miterlimit="10"/><path fill="none" stroke="black" paint-order="fill stroke markers" d=" M 68 440 L 72 440" stroke-linejoin="bevel" stroke-miterlimit="10"/><path fill="none" stroke="black" paint-order="fill stroke markers" d=" M 68 413 L 72 413" stroke-linejoin="bevel" stroke-miterlimit="10"/><path fill="none" stroke="black" paint-order="fill stroke markers" d=" M 68 386 L 72 386" stroke-linejoin="bevel" stroke-miterlimit="10"/><path fill="none" stroke="black" paint-order="fill stroke markers" d=" M 68 358 L 72 358" stroke-linejoin="bevel" stroke-miterlimit="10"/><path fill="none" stroke="black" paint-order="fill stroke markers" d=" M 68 331 L 72 331" stroke-linejoin="bevel" stroke-miterlimit="10"/><path fill="none" stroke="black" paint-order="fill stroke markers" d=" M 68 303 L 72 303" stroke-linejoin="bevel" stroke-miterlimit="10"/><path fill="none" stroke="black" paint-order="fill stroke markers" d=" M 68 276 L 72 276" stroke-linejoin="bevel" stroke-miterlimit="10"/><path fill="none" stroke="black" paint-order="fill stroke markers" d=" M 68 248 L 72 248" stroke-linejoin="bevel" stroke-miterlimit="10"/><path fill="none" stroke="black" paint-order="fill stroke markers" d=" M 68 221 L 72 221" stroke-linejoin="bevel" stroke-miterlimit="10"/><path fill="none" stroke="black" paint-order="fill stroke markers" d=" M 68 194 L 72 194" stroke-linejoin="bevel" stroke-miterlimit="10"/><path fill="none" stroke="black" paint-order="fill stroke markers" d=" M 68 166 L 72 166" stroke-linejoin="bevel" stroke-miterlimit="10"/><path fill="none" stroke="black" paint-order="fill stroke markers" d=" M 68 139 L 72 139" stroke-linejoin="bevel" stroke-miterlimit="10"/><path fill="none" stroke="black" paint-order="fill stroke markers" d=" M 68 111 L 72 111" stroke-linejoin="bevel" stroke-miterlimit="10"/><path fill="none" stroke="black" paint-order="fill stroke markers" d=" M 68 84 L 72 84" stroke-linejoin="bevel" stroke-miterlimit="10"/><path fill="" stroke="black" paint-order="fill stroke markers" d=" M 68 56 L 72 56" stroke-linejoin="bevel" stroke-miterlimit="10"/><g transform="translate(61,440) rotate(0,0,0)"><text fill="" stroke="none" font-family="helvetica" font-size="8pt" font-style="normal" font-weight="normal" text-decoration="normal" x="0" y="0" text-anchor="end" dominant-baseline="central">20000</text><g transform="rotate(0,0,0) translate(-61,-440) translate(61,303) rotate(0,0,0)"><text fill="" stroke="none" font-family="helvetica" font-size="8pt" font-style="normal" font-weight="normal" text-decoration="normal" x="0" y="0" text-anchor="end" dominant-baseline="central">25000</text><g transform="rotate(0,0,0) translate(-61,-303) translate(61,166) rotate(0,0,0)"><text fill="" stroke="none" font-family="helvetica" font-size="8pt" font-style="normal" font-weight="normal" text-decoration="normal" x="0" y="0" text-anchor="end" dominant-baseline="central">30000</text><g transform="rotate(0,0,0) translate(-61,-166) translate(22,277) rotate(-90,0,0)"><text fill="" stroke="none" font-family="helvetica" font-size="14pt" font-style="italic" font-weight="normal" text-decoration="normal" x="0" y="0" text-anchor="middle" dominant-baseline="alphabetic">Number of projects funded</text><g transform="rotate(90,0,0) translate(-22,-277)"/></g></g></g></g></g></g><g clip-path="url(#WlxfeSTtKsTW)"><g/></g></g></g></svg>