<svg version="1.1" xmlns="http://www.w3.org/2000/svg" xmlns:xlink="http://www.w3.org/1999/xlink" width="1000" height="550" style="width: 1000px; height: 550px;"><defs><clipPath id="FIcpLbaqpNab"><path fill="none" stroke="none" d=" M 72 37 L 970 37 L 970 516 L 72 516 L 72 37 Z"/></clipPath><clipPath id="rypGEPZBFffV"><path fill="none" stroke="none" d=" M 72 37 L 970 37 L 970 516 L 72 516 L 72 37 Z"/></clipPath><clipPath id="mAfUWUFkGdgN"><path fill="none" stroke="none" d=" M 72 37 L 970 37 L 970 516 L 72 516 L 72 37 Z"/></clipPath><clipPath id="HDwaOoGGscaq"><path fill="none" stroke="none" d=" M 72 37 L 970 37 L 970 516 L 72 516 L 72 37 Z"/></clipPath><clipPath id="TyQNexpTumPh"><path fill="none" stroke="none" d=" M 72 37 L 970 37 L 970 516 L 72 516 L 72 37 Z"/></clipPath></defs><g><g transform="scale(1,1) translate(0.5,0.5)"><rect fill="#FFFFFF" stroke="none" x="0" y="0" width="1000" height="550"/><rect fill="#ffffff" stroke="none" x="0" y="0" width="1000" height="550"/><rect fill="#FFFFFF" stroke="none" x="72" y="37" width="898" height="479"/><rect fill="#ffffff" stroke="none" x="72" y="37" width="898" height="479"/><g><rect fill="none" stroke="#e5e5e5" x="72" y="37" width="898" height="479" stroke-linejoin="bevel" stroke-miterlimit="10"/></g><g clip-path="url(#FIcpLbaqpNab)"><g><g><path fill="none" stroke="#e5e5e5" paint-order="fill stroke markers" d=" M 162 516 L 162 37" stroke-linejoin="bevel" stroke-miterlimit="10"/><path fill="none" stroke="#e5e5e5" paint-order="fill stroke markers" d=" M 341 516 L 341 37" stroke-linejoin="bevel" stroke-miterlimit="10"/><path fill="none" stroke="#e5e5e5" paint-order="fill stroke markers" d=" M 521 516 L 521 37" stroke-linejoin="bevel" stroke-miterlimit="10"/><path fill="none" stroke="#e5e5e5" paint-order="fill stroke markers" d=" M 701 516 L 701 37" stroke-linejoin="bevel" stroke-miterlimit="10"/><path fill="none" stroke="#e5e5e5" paint-order="fill stroke markers" d=" M 880 516 L 880 37" stroke-linejoin="bevel" stroke-miterlimit="10"/></g></g></g><g clip-path="url(#rypGEPZBFffV)"><g><g><path fill="none" stroke="#e5e5e5" paint-order="fill stroke markers" d=" M 72 441 L 970 441" stroke-linejoin="bevel" stroke-miterlimit="10"/><path fill="none" stroke="#e5e5e5" paint-order="fill stroke markers" d=" M 72 306 L 970 306" stroke-linejoin="bevel" stroke-miterlimit="10"/><path fill="none" stroke="#e5e5e5" paint-order="fill stroke markers" d=" M 72 170 L 970 170" stroke-linejoin="bevel" stroke-miterlimit="10"/></g></g></g><g clip-path="url(#mAfUWUFkGdgN)"><g><g><path fill="none" stroke="none"/><path fill="MidnightBlue" stroke="MidnightBlue" paint-order="fill stroke markers" d=" M 179.3 58.772727272727366 A 17.5 17.5 0 1 1 179.29999125000074 58.755227275644025" stroke-linejoin="bevel" stroke-miterlimit="10"/><path fill="DodgerBlue" stroke="DodgerBlue" paint-order="fill stroke markers" d=" M 358.9 129.35256120186443 A 17.5 17.5 0 1 1 358.8999912500007 129.33506120478108" stroke-linejoin="bevel" stroke-miterlimit="10"/><path fill="CornflowerBlue" stroke="CornflowerBlue" paint-order="fill stroke markers" d=" M 538.5 318.1976446898051 A 17.5 17.5 0 1 1 538.4999912500007 318.18014469272174" stroke-linejoin="bevel" stroke-miterlimit="10"/><path fill="DeepSkyBlue" stroke="DeepSkyBlue" paint-order="fill stroke markers" d=" M 718.1 327.43669396805296 A 17.5 17.5 0 1 1 718.0999912500007 327.4191939709696" stroke-linejoin="bevel" stroke-miterlimit="10"/><path fill="grey" stroke="grey" paint-order="fill stroke markers" d=" M 897.6999999999999 494.22727272727286 A 17.5 17.5 0 1 1 897.6999912500006 494.2097727301895" stroke-linejoin="bevel" stroke-miterlimit="10"/></g></g></g><g clip-path="url(#HDwaOoGGscaq)"><g><g/><g><path fill="#ffffff" stroke="#e5e5e5" paint-order="fill stroke markers" d=" M 556.34375 47 L 960 47 L 960 179 L 556.34375 179 L 556.34375 47 Z" fill-opacity="0.95" stroke-linejoin="bevel" stroke-miterlimit="10" stroke-opacity="0.5"/><text fill="#444444" stroke="none" font-family="helvetica" font-size="10pt" font-style="normal" font-weight="normal" text-decoration="normal" x="591.34375" y="67" text-anchor="start" dominant-baseline="central">Directorate for Mathematical &amp; Physical Sciences</text><path fill="MidnightBlue" stroke="MidnightBlue" paint-order="fill stroke markers" d=" M 580.34375 67 A 4 4 0 1 1 580.3437480000001 66.99600000066667" stroke-linejoin="bevel" stroke-miterlimit="10"/><text fill="#444444" stroke="none" font-family="helvetica" font-size="10pt" font-style="normal" font-weight="normal" text-decoration="normal" x="591.34375" y="90" text-anchor="start" dominant-baseline="central">Directorate for Engineering</text><path fill="DodgerBlue" stroke="DodgerBlue" paint-order="fill stroke markers" d=" M 580.34375 90 A 4 4 0 1 1 580.3437480000001 89.99600000066667" stroke-linejoin="bevel" stroke-miterlimit="10"/><text fill="#444444" stroke="none" font-family="helvetica" font-size="10pt" font-style="normal" font-weight="normal" text-decoration="normal" x="591.34375" y="113" text-anchor="start" dominant-baseline="central">Directorate for Computer &amp; Information Science &amp; Engineering</text><path fill="CornflowerBlue" stroke="CornflowerBlue" paint-order="fill stroke markers" d=" M 580.34375 113 A 4 4 0 1 1 580.3437480000001 112.99600000066667" stroke-linejoin="bevel" stroke-miterlimit="10"/><text fill="#444444" stroke="none" font-family="helvetica" font-size="10pt" font-style="normal" font-weight="normal" text-decoration="normal" x="591.34375" y="136" text-anchor="start" dominant-baseline="central">Directorate for Geosciencess</text><path fill="DeepSkyBlue" stroke="DeepSkyBlue" paint-order="fill stroke markers" d=" M 580.34375 136 A 4 4 0 1 1 580.3437480000001 135.99600000066667" stroke-linejoin="bevel" stroke-miterlimit="10"/><text fill="#444444" stroke="none" font-family="helvetica" font-size="10pt" font-style="normal" font-weight="normal" text-decoration="normal" x="591.34375" y="159" text-anchor="start" dominant-baseline="central">Directorate For Biological Sciences</text><path fill="grey" stroke="grey" paint-order="fill stroke markers" d=" M 580.34375 159 A 4 4 0 1 1 580.3437480000001 158.99600000066667" stroke-linejoin="bevel" stroke-miterlimit="10"/></g></g></g><g><g fill="MidnightBlue"><path fill="" stroke="none" d=""/><g transform="translate(72,32)"><path fill="none" stroke="none"/><text fill="" stroke="none" font-family="helvetica" font-size="15pt" font-style="normal" font-weight="bold" text-decoration="normal" x="0" y="0" text-anchor="start" dominant-baseline="text-after-edge">Directorate for For Mathematical &amp; Physical Scien has funded the largest number of projects</text></g></g></g><g/><g><g fill="#444444"><path fill="" stroke="black" paint-order="fill stroke markers" d=" M 72 516 L 970 516" stroke-linejoin="bevel" stroke-miterlimit="10"/><g transform="translate(162,527) rotate(0,0,0)"><text fill="" stroke="none" font-family="helvetica" font-size="0pt" font-style="normal" font-weight="normal" text-decoration="normal" x="0" y="0" text-anchor="middle" dominant-baseline="hanging">Directorate for Mathematical &amp; Physical Sciences</text><g transform="rotate(0,0,0) translate(-162,-527) translate(341,527) rotate(0,0,0)"><text fill="" stroke="none" font-family="helvetica" font-size="0pt" font-style="normal" font-weight="normal" text-decoration="normal" x="0" y="0" text-anchor="middle" dominant-baseline="hanging">Directorate for Engineering</text><g transform="rotate(0,0,0) translate(-341,-527) translate(521,527) rotate(0,0,0)"><text fill="" stroke="none" font-family="helvetica" font-size="0pt" font-style="normal" font-weight="normal" text-decoration="normal" x="0" y="0" text-anchor="middle" dominant-baseline="hanging">Directorate for Computer &amp; Information Science &amp; Engineering</text><g transform="rotate(0,0,0) translate(-521,-527) translate(701,527) rotate(0,0,0)"><text fill="" stroke="none" font-family="helvetica" font-size="0pt" font-style="normal" font-weight="normal" text-decoration="normal" x="0" y="0" text-anchor="middle" dominant-baseline="hanging">Directorate for Geosciencess</text><g transform="rotate(0,0,0) translate(-701,-527) translate(880,527) rotate(0,0,0)"><text fill="" stroke="none" font-family="helvetica" font-size="0pt" font-style="normal" font-weight="normal" text-decoration="normal" x="0" y="0" text-anchor="middle" dominant-baseline="hanging">Directorate For Biological Sciences</text><g transform="rotate(0,0,0) translate(-880,-527) translate(521,527) rotate(0,0,0)"><text fill="" stroke="none" font-family="helvetica" font-size="14pt" font-style="italic" font-weight="normal" text-decoration="normal" x="0" y="0" text-anchor="middle" dominant-baseline="hanging">Directorate</text><g transform="rotate(0,0,0) translate(-521,-527)"/></g></g></g></g></g></g></g></g><g><g fill="#444444"><path fill="none" stroke="black" paint-order="fill stroke markers" d=" M 72 516 L 72 37" stroke-linejoin="bevel" stroke-miterlimit="10"/><path fill="none" stroke="black" paint-order="fill stroke markers" d=" M 66 441 L 74 441" stroke-linejoin="bevel" stroke-miterlimit="10"/><path fill="none" stroke="black" paint-order="fill stroke markers" d=" M 66 306 L 74 306" stroke-linejoin="bevel" stroke-miterlimit="10"/><path fill="none" stroke="black" paint-order="fill stroke markers" d=" M 66 170 L 74 170" stroke-linejoin="bevel" stroke-miterlimit="10"/><path fill="none" stroke="black" paint-order="fill stroke markers" d=" M 68 468 L 72 468" stroke-linejoin="bevel" stroke-miterlimit="10"/><path fill="none" stroke="black" paint-order="fill stroke markers" d=" M 68 495 L 72 495" stroke-linejoin="bevel" stroke-miterlimit="10"/><path fill="none" stroke="black" paint-order="fill stroke markers" d=" M 68 441 L 72 441" stroke-linejoin="bevel" stroke-miterlimit="10"/><path fill="none" stroke="black" paint-order="fill stroke markers" d=" M 68 414 L 72 414" stroke-linejoin="bevel" stroke-miterlimit="10"/><path fill="none" stroke="black" paint-order="fill stroke markers" d=" M 68 387 L 72 387" stroke-linejoin="bevel" stroke-miterlimit="10"/><path fill="none" stroke="black" paint-order="fill stroke markers" d=" M 68 360 L 72 360" stroke-linejoin="bevel" stroke-miterlimit="10"/><path fill="none" stroke="black" paint-order="fill stroke markers" d=" M 68 333 L 72 333" stroke-linejoin="bevel" stroke-miterlimit="10"/><path fill="none" stroke="black" paint-order="fill stroke markers" d=" M 68 306 L 72 306" stroke-linejoin="bevel" stroke-miterlimit="10"/><path fill="none" stroke="black" paint-order="fill stroke markers" d=" M 68 279 L 72 279" stroke-linejoin="bevel" stroke-miterlimit="10"/><path fill="none" stroke="black" paint-order="fill stroke markers" d=" M 68 252 L 72 252" stroke-linejoin="bevel" stroke-miterlimit="10"/><path fill="none" stroke="black" paint-order="fill stroke markers" d=" M 68 225 L 72 225" stroke-linejoin="bevel" stroke-miterlimit="10"/><path fill="none" stroke="black" paint-order="fill stroke markers" d=" M 68 197 L 72 197" stroke-linejoin="bevel" stroke-miterlimit="10"/><path fill="none" stroke="black" paint-order="fill stroke markers" d=" M 68 170 L 72 170" stroke-linejoin="bevel" stroke-miterlimit="10"/><path fill="none" stroke="black" paint-order="fill stroke markers" d=" M 68 143 L 72 143" stroke-linejoin="bevel" stroke-miterlimit="10"/><path fill="none" stroke="black" paint-order="fill stroke markers" d=" M 68 116 L 72 116" stroke-linejoin="bevel" stroke-miterlimit="10"/><path fill="none" stroke="black" paint-order="fill stroke markers" d=" M 68 89 L 72 89" stroke-linejoin="bevel" stroke-miterlimit="10"/><path fill="" stroke="black" paint-order="fill stroke markers" d=" M 68 62 L 72 62" stroke-linejoin="bevel" stroke-miterlimit="10"/><g transform="translate(61,441) rotate(0,0,0)"><text fill="" stroke="none" font-family="helvetica" font-size="8pt" font-style="normal" font-weight="normal" text-decoration="normal" x="0" y="0" text-anchor="end" dominant-baseline="central">20000</text><g transform="rotate(0,0,0) translate(-61,-441) translate(61,306) rotate(0,0,0)"><text fill="" stroke="none" font-family="helvetica" font-size="8pt" font-style="normal" font-weight="normal" text-decoration="normal" x="0" y="0" text-anchor="end" dominant-baseline="central">25000</text><g transform="rotate(0,0,0) translate(-61,-306) translate(61,170) rotate(0,0,0)"><text fill="" stroke="none" font-family="helvetica" font-size="8pt" font-style="normal" font-weight="normal" text-decoration="normal" x="0" y="0" text-anchor="end" dominant-baseline="central">30000</text><g transform="rotate(0,0,0) translate(-61,-170) translate(22,277) rotate(-90,0,0)"><text fill="" stroke="none" font-family="helvetica" font-size="14pt" font-style="italic" font-weight="normal" text-decoration="normal" x="0" y="0" text-anchor="middle" dominant-baseline="alphabetic">Number of projects funded</text><g transform="rotate(90,0,0) translate(-22,-277)"/></g></g></g></g></g></g><g clip-path="url(#TyQNexpTumPh)"><g/></g></g></g></svg>